<svg width="20" height="24" viewBox="0 0 20 24" fill="none" xmlns="http://www.w3.org/2000/svg">
<path d="M10 4C5.58178 4 2 7.58172 2 12C2 16.4183 5.58178 20 10 20C14.4182 20 18 16.4183 18 12C18 7.58172 14.4182 4 10 4ZM12.765 12.4241L8.765 14.9241C8.68929 14.9713 8.6023 14.9975 8.51308 14.9998C8.42385 15.0021 8.33563 14.9805 8.25756 14.9373C8.17951 14.894 8.11445 14.8306 8.06916 14.7537C8.02387 14.6769 7.99999 14.5892 8 14.5V9.5C8 9.31812 8.09863 9.15088 8.25756 9.06275C8.33558 9.01931 8.42382 8.99762 8.51308 8.99994C8.60235 9.00226 8.68935 9.02851 8.765 9.07594L12.765 11.5759C12.9111 11.6675 13 11.8277 13 12C13 12.1723 12.9111 12.3325 12.765 12.4241Z" fill="white"/>
</svg>
